<svg
  width="565"
  height="180"
  xmlns="http://www.w3.org/2000/svg"
  xmlns:xlink="http://www.w3.org/1999/xlink"
><defs><path id="a" d="M0 180h565V0H0z" /></defs><g
    fill="none"
    fill-rule="evenodd"
  ><path
      d="M205.572 126V69.6c0-10.736-3.538-17.244-14.803-17.244-7.51 0-12.584 4.936-15.47 11.648-3.088 7.168-2.87 16.788-2.87 24.38v37.38H151V34.248h17.906l1.536 11.852c5.307-9.62 15.905-14.1 26.3-14.1C215.736 32 227 45.66 227 64.884V126h-21.428zM302.256 54.541c-3.56-3.575-8.449-5.362-13.337-5.143-5.779-.22-11.12 2.242-14.9 6.727-3.108 3.998-4.67 8.906-4.45 13.813h38.247c.219-5.581-1.78-11.148-5.56-15.397m26.691 31.25h-59.16c-.219 6.475 2.015 12.747 6.45 17.42 3.56 3.574 8.23 5.581 13.119 5.581 6.232 0 9.792-1.097 12.9-4.249 2-1.991 3.561-4.672 4.233-7.589h20.225c-1.109 6.037-3.545 11.838-7.56 16.542-7.558 8.906-18.46 12.497-29.798 12.497-10.448.203-20.46-3.81-27.784-11.164C252.67 106.11 248 93.614 248 79.095c0-14.284 4.232-27 12.682-35.718 7.324-7.573 17.554-11.602 28.237-11.367 13.119 0 24.91 5.346 32.235 16.51 6.45 9.816 8.012 19.866 7.559 31.046.453.203.234 4.217.234 6.224"
      fill="#FEFEFE"
    /><mask id="b" fill="#fff"><use xlink:href="#a" /></mask><path
      fill="#FEFEFE"
      mask="url(#b)"
      d="M348 126h26V99h-26zM462.278 111.908c-7.398 9.18-18.827 14.32-30.476 14.084-11.885 0-23.313-5.156-30.932-14.084-6.722-8.504-9.87-19.696-9.87-32.9 0-13.22 3.148-24.412 9.87-32.916 7.84-8.944 19.047-14.32 30.932-14.085 11.87-.235 23.078 5.14 30.476 14.085 4.266 5.612 6.502 12.528 6.722 19.492h-21.062a20.853 20.853 0 00-2.472-8.3c-3.132-4.464-8.296-7.168-13.664-6.697-4.942-.235-9.87 2.013-13.223 5.596-5.163 5.597-6.06 14.32-6.06 22.825 0 8.504.897 17.008 6.06 22.604 3.353 3.584 8.06 5.816 12.987 5.816 5.384.22 10.547-2.232 13.68-6.712 1.574-2.468 2.471-5.392 2.471-8.284h21.063c0 6.948-2.236 13.66-6.502 19.476M543.572 126V70.024c0-10.477-3.538-16.946-14.803-16.946-12.817 0-18.34 14.049-18.34 25.2V126H489V0h21.428v44.824c5.09-7.58 15.02-11.824 24.3-11.824C553.734 33 565 46.83 565 65.34V126h-21.428zM8.569 159.306H1.854v9.202h6.715c3.707 0 6.016-1.537 6.016-4.609 0-3.042-2.31-4.593-6.016-4.593m2.78 10.292L15.983 179h-1.854l-4.406-8.971H1.626V179H0v-21h8.341c5.09 0 7.642 2.412 7.642 6.13.228 2.411-1.854 4.808-4.634 5.468M24.74 155.483l-.443-.896 4.74-3.587.888 1.337-5.184 3.146zM20 179v-21.724h14v1.558H21.807v7.85h10.83v1.572h-10.83v9.187H34V179H20zM45.61 159.306h-6.038v9.417h6.038c3.365 0 5.598-1.521 5.598-4.824 0-3.272-2.469-4.593-5.598-4.593m0 10.938h-6.038V179H38v-21h7.61c4.261 0 7.39 1.966 7.39 6.13 0 4.147-3.129 6.114-7.39 6.114M65.105 179c-5.472 0-7.968-3.503-7.968-7.88V158h1.584v13.12c-.224 3.287 2.288 6.344 5.696 6.559 3.424.23 6.608-2.182 6.832-5.47V158h1.6v13.12c.224 4.377-2.272 7.88-7.744 7.88M87.21 168.723h-6.578v8.74h6.577c3.28 0 6.1-.875 6.1-4.377 0-3.488-2.572-4.363-6.1-4.363m0-9.417h-6.577v7.88h6.577c3.28 0 5.638-.66 5.638-3.932.23-3.073-2.819-3.948-5.638-3.948m5.869 18.158c-1.649 1.09-3.759 1.536-5.869 1.536H79v-21h8.21c1.648 0 3.527.215 4.928 1.09 1.401.876 2.341 2.413 2.341 3.933.247 2.182-1.401 4.379-3.742 5.04 2.572.43 4.45 2.626 4.22 5.023.23 1.736-.478 3.287-1.88 4.378M98.392 178.787V158h1.6v19.48h11.616V179zM116.2 179h1.6v-21h-1.6zM134.821 161.015a7.483 7.483 0 00-9.312 0c-2.28 1.94-2.28 4.94-2.28 7.318 0 2.394 0 5.622 2.28 7.546 1.355 1.106 2.95 1.742 4.545 1.53 1.355 0 2.71-.424 3.62-1.076l-3.397-3.878 1.132-.88 3.412 3.895c1.579-2.152 2.265-4.546 2.041-7.137.224-2.378 0-5.606-2.04-7.318m1.355 15.743l2.04 2.363-1.131.879-2.042-2.379a8.658 8.658 0 01-4.544 1.303c-2.041 0-4.082-.651-5.677-1.94-2.04-2.393-3.173-5.408-2.726-8.423-.447-3.016.685-6.03 2.726-8.425 1.595-1.288 3.636-2.136 5.677-2.136 2.041 0 4.082.636 5.677 2.136 2.04 2.394 3.173 5.41 2.726 8.425.224 2.803-.685 5.833-2.726 8.197M151.098 179c-5.472 0-7.984-3.518-7.984-7.896V158h1.6v13.104c-.224 3.287 2.272 6.344 5.696 6.575 3.424.215 6.608-2.197 6.832-5.47V158h1.6v13.104c.448 3.933-2.512 7.45-6.608 7.896h-1.136zM164.824 178.787V158h14.352v1.49h-12.768v7.588h11.168v1.52h-11.168v8.881h12.768V179zM189.824 178.787V158h14.352v1.49h-12.752v7.588h11.168v1.52h-11.168v8.881h12.752V179zM214.688 159.52V179h-1.6v-19.48h-7.056V158h15.936v1.52zM237.253 178.989c-2.21 0-4.2-.875-5.756-2.195-3.33-5.018-3.33-11.57 0-16.604 1.556-1.52 3.547-2.18 5.756-2.18 3.982-.214 7.53 2.84 7.747 6.553h-1.758c-.233-3.053-2.893-5.463-6.207-5.018-1.773 0-3.33.645-4.434 1.734-2.66 4.589-2.66 10.052 0 14.64 1.105 1.105 2.878 1.75 4.434 1.75 3.096.23 5.756-1.964 6.207-5.018H245c-.436 3.713-3.982 6.552-7.747 6.338M254.736 160.195L249.868 172h9.736l-4.868-11.805zm7.88 18.805l-2.312-5.48h-11.136l-2.312 5.48H245l8.58-21h1.612L264 179h-1.384zM282.22 179l-12.659-18.588V179H268v-21h1.78l12.675 18.588V158H284v21zM295.68 159.52V179h-1.584v-19.48h-7.072V158h15.952v1.52zM317.058 161.207c-2.67-2.171-6.228-2.171-8.898 0-2.216 1.957-2.216 5.015-2.216 7.4 0 2.4 0 5.657 2.216 7.4 2.67 2.186 6.229 2.186 8.898 0 2.217-1.957 2.217-5 2.217-7.4 0-2.385 0-5.657-2.217-7.4m1.109 15.672c-3.341 2.828-8.009 2.828-11.334 0-3.777-5-3.777-11.743 0-16.758 3.325-2.828 7.993-2.828 11.334 0 3.777 5.015 3.777 11.758 0 16.758M340.222 179l-12.663-18.588V179H326v-21h1.778l12.663 18.588V158H342v21zM365.892 161.052a5.655 5.655 0 00-4.574-1.549h-5.938v18.36h5.938c1.605 0 3.194-.644 4.574-1.518 3.193-4.817 3.193-10.706 0-15.293m1.364 15.937c-1.605 1.319-3.66 2.193-5.713 1.979H354V158h7.543c2.054 0 4.108.644 5.713 1.963 3.659 5.246 3.659 12.01 0 17.026M374.824 178.787V158h14.352v1.49h-12.752v7.588h11.152v1.52h-11.152v8.881h12.752V179zM410.923 179l-10.292-16.868V179H398v-21h3.077l10.292 17.037V158H414v21zM419.712 179v-21h14.576v2.396h-11.84v6.345h10.48v2.397h-10.48v7.235h11.84v2.381zM446.976 179c-5.008 0-7.968-2.873-7.968-7.896V158h2.72v13.104c0 3.287 1.376 5.484 5.248 5.484 3.872 0 5.232-2.197 5.232-5.484V158h2.736v13.104c.464 3.933-2.496 7.45-6.608 7.896h-1.36zM472.843 176.851c-3.251 2.865-8.006 2.865-11.257 0-3.448-5.036-3.448-11.612 0-16.664 1.52-1.54 3.464-2.187 5.636-2.187 1.945 0 4.102.647 5.62 2.187 1.292 1.31 1.945 2.865 2.158 4.605h-2.81c0-1.093-.426-1.971-1.079-2.85-1.078-1.093-2.385-1.524-3.676-1.524-1.52 0-2.81.431-3.676 1.525-2.385 4.158-2.385 9.21 0 13.153a5.028 5.028 0 003.676 1.54c1.504 0 2.81-.447 3.676-1.54.653-.878 1.079-1.756 1.079-2.85h2.597c.213 1.756-.653 3.296-1.944 4.605M492.232 179v-9.632h-10.464V179h-2.736v-21h2.736v8.956h10.464V158h2.736v21zM506.492 160.333l-3.94 11.097h7.88l-3.94-11.097zm3.484-4.01l-3.484-3.56-3.468 3.56-1.4-1.327 3.94-3.996h1.856l3.94 3.996-1.384 1.326zm3.24 22.677l-1.856-5.12h-9.736l-1.856 5.12H497l7.88-21.336h3.24L516 179h-2.784zM523.472 160.396V179h-2.72v-18.604h-6.608V158h15.712v2.396zM533.712 179v-21h14.576v2.396h-11.84v6.345h10.48v2.397h-10.48v7.235h11.84v2.381zM552.392 179v-21h2.736v18.588h10.48V179z"
    /><path
      d="M113.565 42.403h-7.117l-1.998 8.823h-8.662l-1.56 7.316h8.896l-1.78 8.838h7.102l1.78-8.838h8.661l1.78-7.316h-8.881l1.78-8.823zM130 34l-18.885 92H74l18.9-92H130z"
      fill="#C7C2C1"
      mask="url(#b)"
    /><path
      fill="#FEFEFE"
      mask="url(#b)"
      d="M0 126h37.115L56 34H18.9z"
    /></g></svg>
