<svg
  width="567"
  height="198"
  xmlns="http://www.w3.org/2000/svg"
  xmlns:xlink="http://www.w3.org/1999/xlink"
><defs><path id="a" d="M0 0H566.93v197.57H0z" /></defs><g
    fill="none"
    fill-rule="evenodd"
  ><mask id="b" fill="#fff"><use xlink:href="#a" /></mask><path
      d="M510.013 107.602h31.848v12.95h-17.196v3.983h16.142v12.103h-16.142v4.31h18.3v12.943h-32.952v-46.289zm-36.562 13.21v19.673h2.874c3.67 0 6.478-.78 8.45-2.379 1.951-1.58 2.931-4.172 2.931-7.777 0-2.995-.98-5.333-2.932-7.008-1.97-1.675-4.58-2.509-7.854-2.509h-3.469zm-14.973 33.08v-46.29h17.267c3.661 0 7.155.367 10.494 1.071 3.337.722 6.28 1.971 8.824 3.735 2.551 1.77 4.596 4.113 6.114 7.03 1.533 2.925 2.296 6.606 2.296 11.051 0 4.054-.728 7.558-2.187 10.53-1.46 2.958-3.426 5.385-5.862 7.291-2.432 1.894-5.259 3.302-8.434 4.22-3.178.905-6.496 1.361-9.928 1.361h-18.584zm-51.723-46.29h15.504l13.21 23.48h.255l-.649-23.48h14.78v46.29h-15.889l-12.823-22.1h-.254l.657 22.1h-14.79v-46.29zm-32.022 16.146l-3.79 11.452h7.522l-3.732-11.452zm-8.044-16.146h16.543l18.05 46.29h-16.929l-2.426-6.79h-14.71l-2.288 6.79h-16.48l18.24-46.29zm-67.332 20.135l.722 26.154h-14.515v-46.289h20.354l8.387 24.911h.325l7.262-24.91h21.02v46.288h-15.17l.457-26.024-.39-.065-8.636 26.09h-10.988l-8.499-26.155h-.329zm-55.252 2.752c0 1.527.221 2.918.683 4.184.462 1.261 1.101 2.356 1.903 3.267a8.225 8.225 0 002.915 2.125 8.89 8.89 0 003.655.758c1.314 0 2.512-.255 3.633-.758a8.784 8.784 0 002.907-2.125c.828-.91 1.47-2.006 1.932-3.267.45-1.266.675-2.657.675-4.184 0-1.486-.225-2.84-.675-4.09-.462-1.243-1.104-2.284-1.932-3.137a9.24 9.24 0 00-2.907-2 9.293 9.293 0 00-3.633-.71 9.464 9.464 0 00-3.655.71 8.62 8.62 0 00-2.915 2c-.802.853-1.44 1.894-1.903 3.137-.462 1.25-.683 2.604-.683 4.09zm-16.54 0c0-3.71.651-7.049 1.96-10.038 1.31-2.989 3.107-5.522 5.397-7.617 2.284-2.095 4.995-3.705 8.132-4.842 3.15-1.124 6.552-1.704 10.207-1.704 3.663 0 7.061.58 10.194 1.704 3.146 1.137 5.871 2.747 8.18 4.842 2.317 2.095 4.122 4.628 5.43 7.617 1.3 2.99 1.96 6.327 1.96 10.038 0 3.705-.66 7.078-1.96 10.133-1.308 3.06-3.113 5.658-5.43 7.818-2.309 2.154-5.034 3.823-8.18 4.995-3.133 1.178-6.53 1.77-10.194 1.77-3.655 0-7.058-.592-10.207-1.77-3.137-1.172-5.848-2.84-8.132-4.995-2.29-2.16-4.087-4.759-5.398-7.818-1.308-3.055-1.959-6.428-1.959-10.133zm-29.749-3.344h3.045c.521 0 1.094-.03 1.725-.125a5.367 5.367 0 001.75-.556 4.056 4.056 0 001.37-1.178c.36-.497.547-1.165.547-1.988 0-.835-.155-1.492-.453-1.966a2.958 2.958 0 00-1.175-1.083 4.882 4.882 0 00-1.55-.455 17.204 17.204 0 00-1.56-.095h-3.699v7.446zm-14.97-19.543h19.941c2.264 0 4.516.225 6.768.68 2.24.462 4.25 1.267 6.02 2.421 1.757 1.154 3.19 2.716 4.284 4.652 1.086 1.941 1.637 4.368 1.637 7.291 0 2.83-.702 5.321-2.095 7.482-1.39 2.16-3.392 3.83-6.002 5.001l11.748 18.762h-17.874l-8.87-16.53h-.457v16.53h-15.1v-46.289zm327.093-67.717h31.916v12.967h-17.232v3.995h16.18v12.127h-16.18v4.327h18.342v12.98H509.94V39.884zm-25.675 46.396h15.731V39.885h-15.73v46.396zM451.07 59.475h3.066c.515 0 1.098-.047 1.71-.136a5.234 5.234 0 001.762-.557 3.704 3.704 0 001.363-1.183c.371-.503.563-1.16.563-1.995 0-.835-.157-1.48-.46-1.959-.3-.485-.69-.84-1.18-1.088a4.42 4.42 0 00-1.548-.456c-.57-.06-1.09-.1-1.565-.1h-3.71v7.474zm-15-19.59h19.987c2.27 0 4.533.218 6.77.68 2.268.462 4.268 1.272 6.046 2.427 1.77 1.16 3.2 2.705 4.286 4.652 1.088 1.941 1.642 4.385 1.642 7.315 0 2.83-.699 5.327-2.098 7.493-1.388 2.172-3.395 3.841-6.002 5.013l11.764 18.815h-17.913l-8.893-16.584h-.453V86.28H436.07V39.885zm-43.38 0h31.925v12.967h-17.24v3.995h16.192v12.127h-16.193v4.327h18.35v12.98H392.69V39.884zM372.67 86.28h-15.589V53.048h-11.408V39.885h38.402v13.163H372.67V86.28zm-67.036-23.467c0 1.533.225 2.924.68 4.196.465 1.267 1.098 2.356 1.906 3.28a8.369 8.369 0 002.912 2.124c1.134.51 2.361.757 3.673.757 1.305 0 2.53-.248 3.634-.757a8.735 8.735 0 002.92-2.125c.832-.923 1.477-2.012 1.945-3.279.45-1.272.68-2.663.68-4.196 0-1.48-.23-2.847-.68-4.095-.468-1.243-1.113-2.303-1.945-3.149a9.1 9.1 0 00-2.92-2c-1.104-.474-2.329-.717-3.634-.717a9.458 9.458 0 00-3.673.716 8.7 8.7 0 00-2.912 2.001c-.808.846-1.44 1.906-1.906 3.15-.455 1.247-.68 2.614-.68 4.094zm-16.59 0c0-3.71.654-7.06 1.968-10.062 1.314-2.988 3.116-5.533 5.413-7.634 2.29-2.096 5.012-3.705 8.158-4.848 3.146-1.136 6.55-1.698 10.222-1.698 3.672 0 7.078.562 10.224 1.698 3.146 1.143 5.871 2.752 8.191 4.848 2.32 2.101 4.126 4.646 5.445 7.634 1.3 3.001 1.962 6.351 1.962 10.062 0 3.717-.663 7.102-1.962 10.15-1.319 3.066-3.125 5.677-5.445 7.842-2.32 2.167-5.045 3.83-8.19 5.007-3.147 1.19-6.553 1.782-10.225 1.782-3.673 0-7.076-.592-10.222-1.782-3.146-1.177-5.868-2.84-8.158-5.007-2.297-2.165-4.099-4.776-5.413-7.842-1.314-3.048-1.968-6.433-1.968-10.15zm-36.866-22.928h15.74v32.948h15.388V86.28h-31.128V39.885zM562.632 4.29H131.954c22.851 16.123 37.796 42.744 37.796 72.875 0 49.198-39.767 89.113-88.856 89.113-32.64 0-61.14-17.643-76.597-43.915v70.91h558.335V4.29zM4.297 31.99a89.401 89.401 0 0125.521-27.7H4.298v27.7zm14.388 45.175c0 34.45 27.844 62.337 62.21 62.337 34.357 0 62.198-27.887 62.198-62.337s-27.84-62.363-62.199-62.363c-34.365 0-62.209 27.912-62.209 62.363zM0 197.57h566.93V0H0v197.57zM41.53 89.908c0-21.922 17.65-39.772 39.347-39.772 21.691 0 39.352 17.85 39.352 39.772 0 21.914-17.66 39.746-39.352 39.746-21.697 0-39.347-17.832-39.347-39.746z"
      fill="#fff"
      mask="url(#b)"
    /></g></svg>
