<svg width="1384" height="451" xmlns="http://www.w3.org/2000/svg"><g
    fill="none"
    fill-rule="evenodd"
  ><g fill="#333"><path
        d="M576.378 7.073H690.7l105.448 107.88V7.074h136.706v432.14l-218.58-220.497V419.74H576.378zM219.194 0c22.98 0 60.697 3.546 91.898 21.216V179.81c-20.603-24.762-45.959-40.094-83.657-40.094-44.196 0-78.366 32.428-78.366 74.284 0 41.857 34.17 74.285 78.366 74.285 37.698 0 63.054-15.332 83.657-40.094v158.594c-31.2 17.67-68.919 21.216-91.898 21.216C98.99 428.001 0 334.857 0 214 0 93.144 98.99 0 219.194 0M370.121 419.722h141.421V7.073H370.121zM1108.447 395.17c-80.993-26.831-140.214-101.174-140.214-192.285C968.233 87.758 1062.622 0 1176.043 0c113.4 0 207.829 87.758 207.829 202.885 0 91.686-59.796 166.029-141.363 192.286v55.599h-134.062v-55.6zm67.596-124.65c38.54 0 66.466-29.055 66.466-67.635 0-38.561-27.925-67.615-66.466-67.615-38.542 0-66.485 29.054-66.485 67.615 0 38.58 27.943 67.635 66.485 67.635z"
      /></g></g></svg>
